<svg xmlns="http://www.w3.org/2000/svg" xmlns:xlink="http://www.w3.org/1999/xlink" width="1920" zoomAndPan="magnify" viewBox="0 0 1440 809.999993" height="1080" preserveAspectRatio="xMidYMid meet" version="1.0"><defs><g/></defs><path stroke-linecap="butt" transform="matrix(0.53033, -0.53033, 0.53033, 0.53033, -168.2631, 1068.04871)" fill="none" stroke-linejoin="miter" d="M 0.00303229 33.999624 L 1540.678294 33.999624 " stroke="#ff5757" stroke-width="68" stroke-opacity="1" stroke-miterlimit="4"/><path stroke-linecap="butt" transform="matrix(0.530905, -0.529754, 0.529754, 0.530905, 765.185944, 295.964624)" fill="none" stroke-linejoin="miter" d="M 0.000347887 36.502402 L 1613.258122 36.497931 " stroke="#ff5757" stroke-width="73" stroke-opacity="1" stroke-miterlimit="4"/><path stroke-linecap="butt" transform="matrix(0.749999, 0.000855263, -0.000855263, 0.749999, 0.285881, 285.296578)" fill="none" stroke-linejoin="miter" d="M 0.00111703 47.500428 L 1959.044199 47.500807 " stroke="#ff5757" stroke-width="95" stroke-opacity="1" stroke-miterlimit="4"/><path stroke-linecap="butt" transform="matrix(0.53033, -0.53033, 0.53033, 0.53033, 1042.962602, 290.269575)" fill="none" stroke-linejoin="miter" d="M -0.00152783 33.998442 L 1540.673734 33.998442 " stroke="#ff5757" stroke-width="68" stroke-opacity="1" stroke-miterlimit="4"/><g fill="#ff5757" fill-opacity="1"><g transform="translate(119.115111, 291.89438)"><g><path d="M 48.046875 -123.984375 L 48.046875 0 L 24.953125 0 L 24.953125 -99.34375 L 9.921875 -90.96875 L 7.75 -113.453125 L 24.015625 -123.984375 Z M 48.046875 -123.984375 "/></g></g></g><g fill="#ff5757" fill-opacity="1"><g transform="translate(174.903855, 291.89438)"><g><path d="M 61.53125 -87.09375 C 68.96875 -87.300781 75.269531 -86.21875 80.4375 -83.84375 C 85.601562 -81.46875 89.8125 -78.210938 93.0625 -74.078125 C 96.320312 -69.953125 98.675781 -65.378906 100.125 -60.359375 C 101.570312 -55.347656 102.296875 -50.3125 102.296875 -45.25 C 102.296875 -30.894531 98.265625 -19.765625 90.203125 -11.859375 C 82.140625 -3.953125 69.222656 0 51.453125 0 C 44.328125 0 38.050781 -1.132812 32.625 -3.40625 C 27.195312 -5.675781 22.648438 -8.539062 18.984375 -12 C 15.316406 -15.46875 12.550781 -19.0625 10.6875 -22.78125 C 8.832031 -26.5 7.90625 -29.753906 7.90625 -32.546875 L 30.375 -34.40625 C 30.6875 -31.207031 33.0625 -28.804688 37.5 -27.203125 C 41.945312 -25.597656 47.785156 -24.796875 55.015625 -24.796875 C 58.941406 -24.796875 62.425781 -25.695312 65.46875 -27.5 C 68.519531 -29.3125 70.898438 -31.691406 72.609375 -34.640625 C 74.316406 -37.585938 75.171875 -40.765625 75.171875 -44.171875 C 75.171875 -50.265625 73.257812 -54.988281 69.4375 -58.34375 C 65.613281 -61.707031 60.804688 -63.390625 55.015625 -63.390625 C 49.953125 -63.390625 45.5625 -62.71875 41.84375 -61.375 C 38.125 -60.03125 35.28125 -58.554688 33.3125 -56.953125 C 31.351562 -55.347656 30.375 -54.03125 30.375 -53 L 7.90625 -55.328125 L 7.90625 -101.359375 L 7.75 -101.359375 L 7.75 -123.984375 L 94.703125 -123.984375 L 94.703125 -101.359375 L 30.375 -101.359375 L 30.375 -79.65625 C 35.019531 -81.832031 40.03125 -83.59375 45.40625 -84.9375 C 50.78125 -86.28125 56.15625 -87 61.53125 -87.09375 Z M 61.53125 -87.09375 "/></g></g></g><g fill="#ff5757" fill-opacity="1"><g transform="translate(284.93165, 291.89438)"><g><path d="M 64.3125 -123.984375 C 74.851562 -123.984375 83.300781 -121.890625 89.65625 -117.703125 C 96.007812 -113.523438 100.609375 -107.921875 103.453125 -100.890625 C 106.296875 -93.867188 107.71875 -86.070312 107.71875 -77.5 C 107.71875 -68.914062 106.375 -61.082031 103.6875 -54 C 101 -46.925781 96.503906 -41.296875 90.203125 -37.109375 C 83.898438 -32.929688 75.269531 -30.84375 64.3125 -30.84375 L 34.09375 -30.84375 L 34.09375 0 L 10.84375 0 L 10.84375 -123.984375 Z M 80.125 -59.046875 C 83.019531 -62.554688 84.46875 -68.707031 84.46875 -77.5 C 84.46875 -85.863281 82.96875 -91.957031 79.96875 -95.78125 C 79.65625 -96.195312 78.984375 -96.816406 77.953125 -97.640625 C 76.921875 -98.460938 75.34375 -99.207031 73.21875 -99.875 C 71.101562 -100.550781 68.132812 -100.890625 64.3125 -100.890625 L 34.09375 -100.890625 L 34.09375 -54.09375 L 64.3125 -54.09375 C 72.269531 -54.09375 77.539062 -55.742188 80.125 -59.046875 Z M 80.125 -59.046875 "/></g></g></g><g fill="#ff5757" fill-opacity="1"><g transform="translate(383.335328, 291.89438)"><g><path d="M 84 0 L 74.859375 -30.84375 L 44.328125 -30.84375 L 35.1875 0 L 10.84375 0 L 47.421875 -123.984375 L 71.75 -123.984375 L 71.75 -123.671875 L 108.171875 0 Z M 51.140625 -53.9375 L 68.03125 -53.9375 L 59.671875 -82.765625 Z M 51.140625 -53.9375 "/></g></g></g><g fill="#ff5757" fill-opacity="1"><g transform="translate(493.052508, 291.89438)"><g><path d="M 136.84375 -72.375 C 137.050781 -70.71875 137.234375 -68.984375 137.390625 -67.171875 C 137.546875 -65.367188 137.625 -63.59375 137.625 -61.84375 C 137.625 -53.0625 135.96875 -44.847656 132.65625 -37.203125 C 129.351562 -29.554688 124.804688 -22.835938 119.015625 -17.046875 C 113.234375 -11.265625 106.519531 -6.71875 98.875 -3.40625 C 91.226562 -0.101562 83.015625 1.546875 74.234375 1.546875 C 65.453125 1.546875 57.238281 -0.101562 49.59375 -3.40625 C 41.945312 -6.71875 35.226562 -11.265625 29.4375 -17.046875 C 23.65625 -22.835938 19.109375 -29.554688 15.796875 -37.203125 C 12.492188 -44.847656 10.84375 -53.0625 10.84375 -61.84375 C 10.84375 -70.625 12.492188 -78.835938 15.796875 -86.484375 C 19.109375 -94.128906 23.65625 -100.84375 29.4375 -106.625 C 35.226562 -112.414062 41.945312 -116.960938 49.59375 -120.265625 C 57.238281 -123.578125 65.453125 -125.234375 74.234375 -125.234375 C 81.265625 -125.234375 87.984375 -124.144531 94.390625 -121.96875 C 100.796875 -119.800781 106.632812 -116.753906 111.90625 -112.828125 L 94.546875 -95.46875 C 88.753906 -99.5 81.984375 -101.515625 74.234375 -101.515625 C 67.003906 -101.515625 60.570312 -99.734375 54.9375 -96.171875 C 49.3125 -92.609375 44.894531 -87.828125 41.6875 -81.828125 C 38.488281 -75.835938 36.890625 -69.175781 36.890625 -61.84375 C 36.890625 -54.601562 38.488281 -47.960938 41.6875 -41.921875 C 44.894531 -35.878906 49.3125 -31.070312 54.9375 -27.5 C 60.570312 -23.9375 67.003906 -22.15625 74.234375 -22.15625 C 82.910156 -22.15625 90.398438 -24.660156 96.703125 -29.671875 C 103.015625 -34.691406 107.359375 -41.023438 109.734375 -48.671875 L 79.046875 -48.671875 L 79.046875 -72.375 Z M 136.84375 -72.375 "/></g></g></g><g fill="#ff5757" fill-opacity="1"><g transform="translate(638.412948, 291.89438)"><g><path d="M 82.765625 -101.046875 L 34.09375 -101.046875 L 34.09375 -73.765625 L 63.078125 -73.765625 L 63.078125 -50.6875 L 34.09375 -50.6875 L 34.09375 -23.09375 L 82.765625 -23.09375 L 82.765625 0 L 10.84375 0 L 10.84375 -124.140625 L 82.765625 -124.140625 Z M 82.765625 -101.046875 "/></g></g></g><g fill="#ff5757" fill-opacity="1"><g transform="translate(732.014079, 291.89438)"><g><path d="M 27.890625 -13.484375 C 27.890625 -17.304688 26.546875 -20.585938 23.859375 -23.328125 C 21.179688 -26.066406 17.878906 -27.4375 13.953125 -27.4375 C 10.128906 -27.4375 6.847656 -26.066406 4.109375 -23.328125 C 1.367188 -20.585938 0 -17.304688 0 -13.484375 C 0 -9.660156 1.367188 -6.351562 4.109375 -3.5625 C 6.847656 -0.769531 10.128906 0.625 13.953125 0.625 C 17.878906 0.625 21.179688 -0.769531 23.859375 -3.5625 C 26.546875 -6.351562 27.890625 -9.660156 27.890625 -13.484375 Z M 27.890625 -13.484375 "/></g></g></g><g fill="#000000" fill-opacity="1"><g transform="translate(759.919766, 291.89438)"><g><path d="M 101.671875 -34.5625 L 119.1875 -17.203125 C 113.5 -11.515625 106.78125 -6.992188 99.03125 -3.640625 C 91.28125 -0.285156 83.015625 1.390625 74.234375 1.390625 C 65.453125 1.390625 57.238281 -0.257812 49.59375 -3.5625 C 41.945312 -6.875 35.226562 -11.421875 29.4375 -17.203125 C 23.65625 -22.984375 19.109375 -29.695312 15.796875 -37.34375 C 12.492188 -44.988281 10.84375 -53.207031 10.84375 -62 C 10.84375 -70.78125 12.492188 -78.992188 15.796875 -86.640625 C 19.109375 -94.285156 23.65625 -101 29.4375 -106.78125 C 35.226562 -112.570312 41.945312 -117.117188 49.59375 -120.421875 C 57.238281 -123.722656 65.453125 -125.375 74.234375 -125.375 C 83.015625 -125.375 91.28125 -123.722656 99.03125 -120.421875 C 106.78125 -117.117188 113.5 -112.570312 119.1875 -106.78125 L 101.671875 -89.421875 C 98.460938 -93.242188 94.507812 -96.238281 89.8125 -98.40625 C 85.113281 -100.582031 79.921875 -101.671875 74.234375 -101.671875 C 67.003906 -101.671875 60.570312 -99.882812 54.9375 -96.3125 C 49.3125 -92.75 44.894531 -87.972656 41.6875 -81.984375 C 38.488281 -75.992188 36.890625 -69.332031 36.890625 -62 C 36.890625 -54.757812 38.488281 -48.117188 41.6875 -42.078125 C 44.894531 -36.035156 49.3125 -31.226562 54.9375 -27.65625 C 60.570312 -24.09375 67.003906 -22.3125 74.234375 -22.3125 C 79.921875 -22.3125 85.113281 -23.394531 89.8125 -25.5625 C 94.507812 -27.738281 98.460938 -30.738281 101.671875 -34.5625 Z M 101.671875 -34.5625 "/></g></g></g><g fill="#000000" fill-opacity="1"><g transform="translate(882.189536, 291.89438)"><g><path d="M 68.8125 -125.53125 C 77.59375 -125.53125 85.804688 -123.878906 93.453125 -120.578125 C 101.097656 -117.273438 107.8125 -112.726562 113.59375 -106.9375 C 119.382812 -101.15625 123.929688 -94.441406 127.234375 -86.796875 C 130.546875 -79.148438 132.203125 -70.9375 132.203125 -62.15625 C 132.203125 -53.363281 130.546875 -45.144531 127.234375 -37.5 C 123.929688 -29.851562 119.382812 -23.132812 113.59375 -17.34375 C 107.8125 -11.5625 101.097656 -7.019531 93.453125 -3.71875 C 85.804688 -0.414062 77.59375 1.234375 68.8125 1.234375 C 60.03125 1.234375 51.816406 -0.414062 44.171875 -3.71875 C 36.523438 -7.019531 29.804688 -11.5625 24.015625 -17.34375 C 18.234375 -23.132812 13.6875 -29.851562 10.375 -37.5 C 7.070312 -45.144531 5.421875 -53.363281 5.421875 -62.15625 C 5.421875 -70.9375 7.070312 -79.148438 10.375 -86.796875 C 13.6875 -94.441406 18.234375 -101.15625 24.015625 -106.9375 C 29.804688 -112.726562 36.523438 -117.273438 44.171875 -120.578125 C 51.816406 -123.878906 60.03125 -125.53125 68.8125 -125.53125 Z M 68.8125 -101.828125 C 61.582031 -101.828125 55.148438 -100.039062 49.515625 -96.46875 C 43.890625 -92.90625 39.472656 -88.128906 36.265625 -82.140625 C 33.066406 -76.148438 31.46875 -69.488281 31.46875 -62.15625 C 31.46875 -54.914062 33.066406 -48.273438 36.265625 -42.234375 C 39.472656 -36.191406 43.890625 -31.382812 49.515625 -27.8125 C 55.148438 -24.25 61.582031 -22.46875 68.8125 -22.46875 C 76.144531 -22.46875 82.625 -24.25 88.25 -27.8125 C 93.882812 -31.382812 98.300781 -36.191406 101.5 -42.234375 C 104.707031 -48.273438 106.3125 -54.914062 106.3125 -62.15625 C 106.3125 -69.488281 104.707031 -76.148438 101.5 -82.140625 C 98.300781 -88.128906 93.882812 -92.90625 88.25 -96.46875 C 82.625 -100.039062 76.144531 -101.828125 68.8125 -101.828125 Z M 68.8125 -101.828125 "/></g></g></g><g fill="#000000" fill-opacity="1"><g transform="translate(1022.901364, 291.89438)"><g><path d="M 114.0625 -123.984375 L 114.0625 0 L 90.96875 0 L 90.96875 -68.8125 L 75.171875 -31.15625 L 49.75 -31.15625 L 34.09375 -68.5 L 34.09375 0 L 10.84375 0 L 10.84375 -123.984375 L 36.421875 -123.984375 L 62.453125 -61.53125 L 88.65625 -123.984375 Z M 114.0625 -123.984375 "/></g></g></g><path stroke-linecap="butt" transform="matrix(0.749982, 0.00516316, -0.00516316, 0.749982, 393.883551, 515.902554)" fill="none" stroke-linejoin="miter" d="M -0.000932628 28.000391 L 649.019703 28.001145 " stroke="#ff5757" stroke-width="56" stroke-opacity="1" stroke-miterlimit="4"/><g fill="#ffffff" fill-opacity="1"><g transform="translate(508.124284, 552.253048)"><g><path d="M 15.453125 -24.03125 L 19.921875 -24.03125 L 13.265625 -8.3125 L 13.265625 0 L 8.796875 0 L 8.796875 -8.3125 L 2.09375 -24.03125 L 6.59375 -24.03125 L 11.046875 -13.59375 Z M 15.453125 -24.03125 "/></g></g></g><g fill="#ffffff" fill-opacity="1"><g transform="translate(526.844265, 552.253048)"><g><path d="M 13.3125 -24.296875 C 15.019531 -24.296875 16.613281 -23.972656 18.09375 -23.328125 C 19.570312 -22.691406 20.867188 -21.8125 21.984375 -20.6875 C 23.109375 -19.570312 23.988281 -18.273438 24.625 -16.796875 C 25.269531 -15.316406 25.59375 -13.726562 25.59375 -12.03125 C 25.59375 -10.332031 25.269531 -8.742188 24.625 -7.265625 C 23.988281 -5.785156 23.109375 -4.484375 21.984375 -3.359375 C 20.867188 -2.242188 19.570312 -1.363281 18.09375 -0.71875 C 16.613281 -0.0820312 15.019531 0.234375 13.3125 0.234375 C 11.613281 0.234375 10.023438 -0.0820312 8.546875 -0.71875 C 7.066406 -1.363281 5.765625 -2.242188 4.640625 -3.359375 C 3.523438 -4.484375 2.644531 -5.785156 2 -7.265625 C 1.363281 -8.742188 1.046875 -10.332031 1.046875 -12.03125 C 1.046875 -13.726562 1.363281 -15.316406 2 -16.796875 C 2.644531 -18.273438 3.523438 -19.570312 4.640625 -20.6875 C 5.765625 -21.8125 7.066406 -22.691406 8.546875 -23.328125 C 10.023438 -23.972656 11.613281 -24.296875 13.3125 -24.296875 Z M 13.3125 -19.703125 C 11.914062 -19.703125 10.671875 -19.359375 9.578125 -18.671875 C 8.492188 -17.984375 7.640625 -17.054688 7.015625 -15.890625 C 6.398438 -14.734375 6.09375 -13.445312 6.09375 -12.03125 C 6.09375 -10.632812 6.398438 -9.347656 7.015625 -8.171875 C 7.640625 -7.003906 8.492188 -6.070312 9.578125 -5.375 C 10.671875 -4.6875 11.914062 -4.34375 13.3125 -4.34375 C 14.738281 -4.34375 15.992188 -4.6875 17.078125 -5.375 C 18.171875 -6.070312 19.023438 -7.003906 19.640625 -8.171875 C 20.265625 -9.347656 20.578125 -10.632812 20.578125 -12.03125 C 20.578125 -13.445312 20.265625 -14.734375 19.640625 -15.890625 C 19.023438 -17.054688 18.171875 -17.984375 17.078125 -18.671875 C 15.992188 -19.359375 14.738281 -19.703125 13.3125 -19.703125 Z M 13.3125 -19.703125 "/></g></g></g><g fill="#ffffff" fill-opacity="1"><g transform="translate(551.684249, 552.253048)"><g><path d="M 15.90625 -24 L 20.375 -24 L 20.375 -8.3125 C 20.375 -7.09375 20.140625 -5.945312 19.671875 -4.875 C 19.210938 -3.800781 18.578125 -2.859375 17.765625 -2.046875 C 16.960938 -1.242188 16.03125 -0.609375 14.96875 -0.140625 C 13.90625 0.316406 12.765625 0.546875 11.546875 0.546875 L 10.953125 0.546875 C 9.734375 0.546875 8.585938 0.316406 7.515625 -0.140625 C 6.441406 -0.609375 5.5 -1.242188 4.6875 -2.046875 C 3.882812 -2.859375 3.25 -3.800781 2.78125 -4.875 C 2.320312 -5.945312 2.09375 -7.09375 2.09375 -8.3125 L 2.09375 -24 L 6.59375 -24 L 6.59375 -8.3125 C 6.59375 -7.507812 6.785156 -6.769531 7.171875 -6.09375 C 7.566406 -5.425781 8.09375 -4.898438 8.75 -4.515625 C 9.414062 -4.128906 10.148438 -3.9375 10.953125 -3.9375 L 11.546875 -3.9375 C 12.347656 -3.9375 13.078125 -4.128906 13.734375 -4.515625 C 14.398438 -4.898438 14.925781 -5.425781 15.3125 -6.09375 C 15.707031 -6.769531 15.90625 -7.507812 15.90625 -8.3125 Z M 15.90625 -24 "/></g></g></g><g fill="#ffffff" fill-opacity="1"><g transform="translate(574.15423, 552.253048)"><g><path d="M 20.84375 -15 C 20.84375 -13.5 20.640625 -12.109375 20.234375 -10.828125 C 19.828125 -9.546875 19.125 -8.5 18.125 -7.6875 L 20.84375 0 L 16.140625 0 L 13.984375 -6.0625 C 13.503906 -6 12.992188 -5.96875 12.453125 -5.96875 L 6.59375 -5.96875 L 6.59375 0 L 2.09375 0 L 2.09375 -24 L 12.453125 -24 C 14.492188 -24 16.128906 -23.59375 17.359375 -22.78125 C 18.585938 -21.96875 19.472656 -20.878906 20.015625 -19.515625 C 20.566406 -18.160156 20.84375 -16.65625 20.84375 -15 Z M 6.59375 -10.46875 L 12.453125 -10.46875 C 13.992188 -10.46875 15.015625 -10.789062 15.515625 -11.4375 C 16.066406 -12.113281 16.34375 -13.300781 16.34375 -15 C 16.34375 -16.625 16.054688 -17.804688 15.484375 -18.546875 C 15.421875 -18.617188 15.289062 -18.734375 15.09375 -18.890625 C 14.894531 -19.054688 14.585938 -19.203125 14.171875 -19.328125 C 13.765625 -19.460938 13.191406 -19.53125 12.453125 -19.53125 L 6.59375 -19.53125 Z M 6.59375 -10.46875 "/></g></g></g><g fill="#ffffff" fill-opacity="1"><g transform="translate(597.10421, 552.253048)"><g/></g></g><g fill="#ffffff" fill-opacity="1"><g transform="translate(606.104199, 552.253048)"><g><path d="M 12.453125 -24 C 14.492188 -24 16.128906 -23.59375 17.359375 -22.78125 C 18.585938 -21.96875 19.472656 -20.878906 20.015625 -19.515625 C 20.566406 -18.160156 20.84375 -16.65625 20.84375 -15 C 20.84375 -13.34375 20.582031 -11.828125 20.0625 -10.453125 C 19.550781 -9.085938 18.679688 -8 17.453125 -7.1875 C 16.234375 -6.375 14.566406 -5.96875 12.453125 -5.96875 L 6.59375 -5.96875 L 6.59375 0 L 2.09375 0 L 2.09375 -24 Z M 15.515625 -11.4375 C 16.066406 -12.113281 16.34375 -13.300781 16.34375 -15 C 16.34375 -16.625 16.054688 -17.804688 15.484375 -18.546875 C 15.421875 -18.617188 15.289062 -18.734375 15.09375 -18.890625 C 14.894531 -19.054688 14.585938 -19.203125 14.171875 -19.328125 C 13.765625 -19.460938 13.191406 -19.53125 12.453125 -19.53125 L 6.59375 -19.53125 L 6.59375 -10.46875 L 12.453125 -10.46875 C 13.992188 -10.46875 15.015625 -10.789062 15.515625 -11.4375 Z M 15.515625 -11.4375 "/></g></g></g><g fill="#ffffff" fill-opacity="1"><g transform="translate(628.754184, 552.253048)"><g><path d="M 20.84375 -15 C 20.84375 -13.5 20.640625 -12.109375 20.234375 -10.828125 C 19.828125 -9.546875 19.125 -8.5 18.125 -7.6875 L 20.84375 0 L 16.140625 0 L 13.984375 -6.0625 C 13.503906 -6 12.992188 -5.96875 12.453125 -5.96875 L 6.59375 -5.96875 L 6.59375 0 L 2.09375 0 L 2.09375 -24 L 12.453125 -24 C 14.492188 -24 16.128906 -23.59375 17.359375 -22.78125 C 18.585938 -21.96875 19.472656 -20.878906 20.015625 -19.515625 C 20.566406 -18.160156 20.84375 -16.65625 20.84375 -15 Z M 6.59375 -10.46875 L 12.453125 -10.46875 C 13.992188 -10.46875 15.015625 -10.789062 15.515625 -11.4375 C 16.066406 -12.113281 16.34375 -13.300781 16.34375 -15 C 16.34375 -16.625 16.054688 -17.804688 15.484375 -18.546875 C 15.421875 -18.617188 15.289062 -18.734375 15.09375 -18.890625 C 14.894531 -19.054688 14.585938 -19.203125 14.171875 -19.328125 C 13.765625 -19.460938 13.191406 -19.53125 12.453125 -19.53125 L 6.59375 -19.53125 Z M 6.59375 -10.46875 "/></g></g></g><g fill="#ffffff" fill-opacity="1"><g transform="translate(651.404169, 552.253048)"><g><path d="M 16.015625 -19.5625 L 6.59375 -19.5625 L 6.59375 -14.28125 L 12.203125 -14.28125 L 12.203125 -9.8125 L 6.59375 -9.8125 L 6.59375 -4.46875 L 16.015625 -4.46875 L 16.015625 0 L 2.09375 0 L 2.09375 -24.03125 L 16.015625 -24.03125 Z M 16.015625 -19.5625 "/></g></g></g><g fill="#ffffff" fill-opacity="1"><g transform="translate(669.524148, 552.253048)"><g><path d="M 17.015625 -19.5 L 6.59375 -19.5 L 6.59375 -12.984375 L 13.203125 -12.984375 L 13.203125 -8.484375 L 6.59375 -8.484375 L 6.59375 0 L 2.09375 0 L 2.09375 -24 L 17.015625 -24 Z M 17.015625 -19.5 "/></g></g></g><g fill="#ffffff" fill-opacity="1"><g transform="translate(687.704128, 552.253048)"><g><path d="M 16.015625 -19.5625 L 6.59375 -19.5625 L 6.59375 -14.28125 L 12.203125 -14.28125 L 12.203125 -9.8125 L 6.59375 -9.8125 L 6.59375 -4.46875 L 16.015625 -4.46875 L 16.015625 0 L 2.09375 0 L 2.09375 -24.03125 L 16.015625 -24.03125 Z M 16.015625 -19.5625 "/></g></g></g><g fill="#ffffff" fill-opacity="1"><g transform="translate(705.824118, 552.253048)"><g><path d="M 20.84375 -15 C 20.84375 -13.5 20.640625 -12.109375 20.234375 -10.828125 C 19.828125 -9.546875 19.125 -8.5 18.125 -7.6875 L 20.84375 0 L 16.140625 0 L 13.984375 -6.0625 C 13.503906 -6 12.992188 -5.96875 12.453125 -5.96875 L 6.59375 -5.96875 L 6.59375 0 L 2.09375 0 L 2.09375 -24 L 12.453125 -24 C 14.492188 -24 16.128906 -23.59375 17.359375 -22.78125 C 18.585938 -21.96875 19.472656 -20.878906 20.015625 -19.515625 C 20.566406 -18.160156 20.84375 -16.65625 20.84375 -15 Z M 6.59375 -10.46875 L 12.453125 -10.46875 C 13.992188 -10.46875 15.015625 -10.789062 15.515625 -11.4375 C 16.066406 -12.113281 16.34375 -13.300781 16.34375 -15 C 16.34375 -16.625 16.054688 -17.804688 15.484375 -18.546875 C 15.421875 -18.617188 15.289062 -18.734375 15.09375 -18.890625 C 14.894531 -19.054688 14.585938 -19.203125 14.171875 -19.328125 C 13.765625 -19.460938 13.191406 -19.53125 12.453125 -19.53125 L 6.59375 -19.53125 Z M 6.59375 -10.46875 "/></g></g></g><g fill="#ffffff" fill-opacity="1"><g transform="translate(728.774099, 552.253048)"><g/></g></g><g fill="#ffffff" fill-opacity="1"><g transform="translate(737.774076, 552.253048)"><g><path d="M 12.0625 0.296875 C 11.582031 0.296875 10.898438 0.242188 10.015625 0.140625 C 9.140625 0.046875 8.195312 -0.171875 7.1875 -0.515625 C 6.175781 -0.867188 5.210938 -1.414062 4.296875 -2.15625 C 3.429688 -2.875 2.695312 -3.675781 2.09375 -4.5625 L 5.765625 -7.046875 C 5.960938 -6.765625 6.164062 -6.503906 6.375 -6.265625 C 6.582031 -6.023438 6.816406 -5.804688 7.078125 -5.609375 C 7.578125 -5.191406 8.128906 -4.878906 8.734375 -4.671875 C 9.347656 -4.472656 9.929688 -4.332031 10.484375 -4.25 C 11.035156 -4.175781 11.488281 -4.140625 11.84375 -4.140625 C 12.207031 -4.140625 12.390625 -4.140625 12.390625 -4.140625 L 12.546875 -4.140625 C 13.785156 -4.140625 14.742188 -4.410156 15.421875 -4.953125 C 16.097656 -5.492188 16.457031 -6.082031 16.5 -6.71875 C 16.539062 -7.414062 16.175781 -8.113281 15.40625 -8.8125 C 14.632812 -9.519531 13.367188 -9.992188 11.609375 -10.234375 C 8.972656 -10.515625 6.875 -11.375 5.3125 -12.8125 C 4.53125 -13.53125 3.941406 -14.34375 3.546875 -15.25 C 3.160156 -16.164062 3.007812 -17.101562 3.09375 -18.0625 C 3.1875 -19.15625 3.59375 -20.195312 4.3125 -21.1875 C 5.039062 -22.1875 6.109375 -22.976562 7.515625 -23.5625 C 8.921875 -24.15625 10.6875 -24.390625 12.8125 -24.265625 C 13.769531 -24.265625 14.722656 -24.144531 15.671875 -23.90625 C 16.617188 -23.664062 17.503906 -23.351562 18.328125 -22.96875 C 19.148438 -22.59375 19.84375 -22.195312 20.40625 -21.78125 L 17.8125 -18.1875 C 17.457031 -18.457031 16.992188 -18.71875 16.421875 -18.96875 C 15.847656 -19.21875 15.242188 -19.425781 14.609375 -19.59375 C 13.972656 -19.769531 13.351562 -19.859375 12.75 -19.859375 L 12.65625 -19.859375 C 11.019531 -19.941406 9.757812 -19.75 8.875 -19.28125 C 8 -18.820312 7.539062 -18.296875 7.5 -17.703125 C 7.457031 -17.140625 7.660156 -16.640625 8.109375 -16.203125 C 8.566406 -15.773438 9.15625 -15.425781 9.875 -15.15625 C 10.59375 -14.894531 11.332031 -14.710938 12.09375 -14.609375 L 12.15625 -14.609375 C 14.269531 -14.347656 15.988281 -13.785156 17.3125 -12.921875 C 18.632812 -12.066406 19.582031 -11.054688 20.15625 -9.890625 C 20.738281 -8.734375 20.988281 -7.578125 20.90625 -6.421875 C 20.84375 -5.316406 20.476562 -4.25 19.8125 -3.21875 C 19.144531 -2.195312 18.207031 -1.359375 17 -0.703125 C 15.789062 -0.0546875 14.320312 0.273438 12.59375 0.296875 Z M 12.0625 0.296875 "/></g></g></g><g fill="#ffffff" fill-opacity="1"><g transform="translate(759.584065, 552.253048)"><g><path d="M 16.015625 -19.5625 L 6.59375 -19.5625 L 6.59375 -14.28125 L 12.203125 -14.28125 L 12.203125 -9.8125 L 6.59375 -9.8125 L 6.59375 -4.46875 L 16.015625 -4.46875 L 16.015625 0 L 2.09375 0 L 2.09375 -24.03125 L 16.015625 -24.03125 Z M 16.015625 -19.5625 "/></g></g></g><g fill="#ffffff" fill-opacity="1"><g transform="translate(777.704044, 552.253048)"><g><path d="M 20.84375 -15 C 20.84375 -13.5 20.640625 -12.109375 20.234375 -10.828125 C 19.828125 -9.546875 19.125 -8.5 18.125 -7.6875 L 20.84375 0 L 16.140625 0 L 13.984375 -6.0625 C 13.503906 -6 12.992188 -5.96875 12.453125 -5.96875 L 6.59375 -5.96875 L 6.59375 0 L 2.09375 0 L 2.09375 -24 L 12.453125 -24 C 14.492188 -24 16.128906 -23.59375 17.359375 -22.78125 C 18.585938 -21.96875 19.472656 -20.878906 20.015625 -19.515625 C 20.566406 -18.160156 20.84375 -16.65625 20.84375 -15 Z M 6.59375 -10.46875 L 12.453125 -10.46875 C 13.992188 -10.46875 15.015625 -10.789062 15.515625 -11.4375 C 16.066406 -12.113281 16.34375 -13.300781 16.34375 -15 C 16.34375 -16.625 16.054688 -17.804688 15.484375 -18.546875 C 15.421875 -18.617188 15.289062 -18.734375 15.09375 -18.890625 C 14.894531 -19.054688 14.585938 -19.203125 14.171875 -19.328125 C 13.765625 -19.460938 13.191406 -19.53125 12.453125 -19.53125 L 6.59375 -19.53125 Z M 6.59375 -10.46875 "/></g></g></g><g fill="#ffffff" fill-opacity="1"><g transform="translate(798.254015, 552.253048)"><g><path d="M 16.265625 -24 L 21.1875 -24 L 14.09375 0 L 9.1875 0 L 2.09375 -24 L 7.015625 -24 L 11.640625 -8.34375 Z M 16.265625 -24 "/></g></g></g><g fill="#ffffff" fill-opacity="1"><g transform="translate(820.633989, 552.253048)"><g><path d="M 6.59375 -0.09375 L 6.59375 -24 L 2.09375 -24 L 2.09375 -0.09375 Z M 6.59375 -0.09375 "/></g></g></g><g fill="#ffffff" fill-opacity="1"><g transform="translate(828.733979, 552.253048)"><g><path d="M 19.6875 -6.6875 L 23.0625 -3.328125 C 21.96875 -2.234375 20.671875 -1.359375 19.171875 -0.703125 C 17.671875 -0.0546875 16.070312 0.265625 14.375 0.265625 C 12.664062 0.265625 11.070312 -0.0507812 9.59375 -0.6875 C 8.113281 -1.332031 6.8125 -2.210938 5.6875 -3.328125 C 4.570312 -4.453125 3.691406 -5.753906 3.046875 -7.234375 C 2.410156 -8.710938 2.09375 -10.300781 2.09375 -12 C 2.09375 -13.695312 2.410156 -15.285156 3.046875 -16.765625 C 3.691406 -18.242188 4.570312 -19.539062 5.6875 -20.65625 C 6.8125 -21.78125 8.113281 -22.660156 9.59375 -23.296875 C 11.070312 -23.941406 12.664062 -24.265625 14.375 -24.265625 C 16.070312 -24.265625 17.671875 -23.941406 19.171875 -23.296875 C 20.671875 -22.660156 21.96875 -21.785156 23.0625 -20.671875 L 19.6875 -17.3125 C 19.0625 -18.050781 18.289062 -18.628906 17.375 -19.046875 C 16.46875 -19.472656 15.46875 -19.6875 14.375 -19.6875 C 12.96875 -19.6875 11.71875 -19.335938 10.625 -18.640625 C 9.539062 -17.953125 8.6875 -17.023438 8.0625 -15.859375 C 7.445312 -14.703125 7.140625 -13.414062 7.140625 -12 C 7.140625 -10.601562 7.445312 -9.316406 8.0625 -8.140625 C 8.6875 -6.972656 9.539062 -6.039062 10.625 -5.34375 C 11.71875 -4.65625 12.96875 -4.3125 14.375 -4.3125 C 15.46875 -4.3125 16.46875 -4.519531 17.375 -4.9375 C 18.289062 -5.363281 19.0625 -5.945312 19.6875 -6.6875 Z M 19.6875 -6.6875 "/></g></g><g transform="translate(853.903978, 552.253048)"><g><path d="M 16.015625 -19.5625 L 6.59375 -19.5625 L 6.59375 -14.28125 L 12.203125 -14.28125 L 12.203125 -9.8125 L 6.59375 -9.8125 L 6.59375 -4.46875 L 16.015625 -4.46875 L 16.015625 0 L 2.09375 0 L 2.09375 -24.03125 L 16.015625 -24.03125 Z M 16.015625 -19.5625 "/></g></g></g><path stroke-linecap="butt" transform="matrix(0.749982, 0.00516316, -0.00516316, 0.749982, 263.039729, 647.502515)" fill="none" stroke-linejoin="miter" d="M -0.000821643 28.002525 L 649.019778 27.998071 " stroke="#ff5757" stroke-width="56" stroke-opacity="1" stroke-miterlimit="4"/><path stroke-linecap="butt" transform="matrix(0.53033, -0.53033, 0.53033, 0.53033, -361.703121, 1133.757491)" fill="none" stroke-linejoin="miter" d="M -0.000306749 34.000352 L 1540.674955 34.000352 " stroke="#ff5757" stroke-width="68" stroke-opacity="1" stroke-miterlimit="4"/><g fill="#ffffff" fill-opacity="1"><g transform="translate(333.458749, 682.752058)"><g><path d="M 15.453125 -24.03125 L 19.921875 -24.03125 L 13.265625 -8.3125 L 13.265625 0 L 8.796875 0 L 8.796875 -8.3125 L 2.09375 -24.03125 L 6.59375 -24.03125 L 11.046875 -13.59375 Z M 15.453125 -24.03125 "/></g></g></g><g fill="#ffffff" fill-opacity="1"><g transform="translate(352.17873, 682.752058)"><g><path d="M 13.3125 -24.296875 C 15.019531 -24.296875 16.613281 -23.972656 18.09375 -23.328125 C 19.570312 -22.691406 20.867188 -21.8125 21.984375 -20.6875 C 23.109375 -19.570312 23.988281 -18.273438 24.625 -16.796875 C 25.269531 -15.316406 25.59375 -13.726562 25.59375 -12.03125 C 25.59375 -10.332031 25.269531 -8.742188 24.625 -7.265625 C 23.988281 -5.785156 23.109375 -4.484375 21.984375 -3.359375 C 20.867188 -2.242188 19.570312 -1.363281 18.09375 -0.71875 C 16.613281 -0.0820312 15.019531 0.234375 13.3125 0.234375 C 11.613281 0.234375 10.023438 -0.0820312 8.546875 -0.71875 C 7.066406 -1.363281 5.765625 -2.242188 4.640625 -3.359375 C 3.523438 -4.484375 2.644531 -5.785156 2 -7.265625 C 1.363281 -8.742188 1.046875 -10.332031 1.046875 -12.03125 C 1.046875 -13.726562 1.363281 -15.316406 2 -16.796875 C 2.644531 -18.273438 3.523438 -19.570312 4.640625 -20.6875 C 5.765625 -21.8125 7.066406 -22.691406 8.546875 -23.328125 C 10.023438 -23.972656 11.613281 -24.296875 13.3125 -24.296875 Z M 13.3125 -19.703125 C 11.914062 -19.703125 10.671875 -19.359375 9.578125 -18.671875 C 8.492188 -17.984375 7.640625 -17.054688 7.015625 -15.890625 C 6.398438 -14.734375 6.09375 -13.445312 6.09375 -12.03125 C 6.09375 -10.632812 6.398438 -9.347656 7.015625 -8.171875 C 7.640625 -7.003906 8.492188 -6.070312 9.578125 -5.375 C 10.671875 -4.6875 11.914062 -4.34375 13.3125 -4.34375 C 14.738281 -4.34375 15.992188 -4.6875 17.078125 -5.375 C 18.171875 -6.070312 19.023438 -7.003906 19.640625 -8.171875 C 20.265625 -9.347656 20.578125 -10.632812 20.578125 -12.03125 C 20.578125 -13.445312 20.265625 -14.734375 19.640625 -15.890625 C 19.023438 -17.054688 18.171875 -17.984375 17.078125 -18.671875 C 15.992188 -19.359375 14.738281 -19.703125 13.3125 -19.703125 Z M 13.3125 -19.703125 "/></g></g></g><g fill="#ffffff" fill-opacity="1"><g transform="translate(377.018713, 682.752058)"><g><path d="M 15.90625 -24 L 20.375 -24 L 20.375 -8.3125 C 20.375 -7.09375 20.140625 -5.945312 19.671875 -4.875 C 19.210938 -3.800781 18.578125 -2.859375 17.765625 -2.046875 C 16.960938 -1.242188 16.03125 -0.609375 14.96875 -0.140625 C 13.90625 0.316406 12.765625 0.546875 11.546875 0.546875 L 10.953125 0.546875 C 9.734375 0.546875 8.585938 0.316406 7.515625 -0.140625 C 6.441406 -0.609375 5.5 -1.242188 4.6875 -2.046875 C 3.882812 -2.859375 3.25 -3.800781 2.78125 -4.875 C 2.320312 -5.945312 2.09375 -7.09375 2.09375 -8.3125 L 2.09375 -24 L 6.59375 -24 L 6.59375 -8.3125 C 6.59375 -7.507812 6.785156 -6.769531 7.171875 -6.09375 C 7.566406 -5.425781 8.09375 -4.898438 8.75 -4.515625 C 9.414062 -4.128906 10.148438 -3.9375 10.953125 -3.9375 L 11.546875 -3.9375 C 12.347656 -3.9375 13.078125 -4.128906 13.734375 -4.515625 C 14.398438 -4.898438 14.925781 -5.425781 15.3125 -6.09375 C 15.707031 -6.769531 15.90625 -7.507812 15.90625 -8.3125 Z M 15.90625 -24 "/></g></g></g><g fill="#ffffff" fill-opacity="1"><g transform="translate(399.488694, 682.752058)"><g><path d="M 20.84375 -15 C 20.84375 -13.5 20.640625 -12.109375 20.234375 -10.828125 C 19.828125 -9.546875 19.125 -8.5 18.125 -7.6875 L 20.84375 0 L 16.140625 0 L 13.984375 -6.0625 C 13.503906 -6 12.992188 -5.96875 12.453125 -5.96875 L 6.59375 -5.96875 L 6.59375 0 L 2.09375 0 L 2.09375 -24 L 12.453125 -24 C 14.492188 -24 16.128906 -23.59375 17.359375 -22.78125 C 18.585938 -21.96875 19.472656 -20.878906 20.015625 -19.515625 C 20.566406 -18.160156 20.84375 -16.65625 20.84375 -15 Z M 6.59375 -10.46875 L 12.453125 -10.46875 C 13.992188 -10.46875 15.015625 -10.789062 15.515625 -11.4375 C 16.066406 -12.113281 16.34375 -13.300781 16.34375 -15 C 16.34375 -16.625 16.054688 -17.804688 15.484375 -18.546875 C 15.421875 -18.617188 15.289062 -18.734375 15.09375 -18.890625 C 14.894531 -19.054688 14.585938 -19.203125 14.171875 -19.328125 C 13.765625 -19.460938 13.191406 -19.53125 12.453125 -19.53125 L 6.59375 -19.53125 Z M 6.59375 -10.46875 "/></g></g></g><g fill="#ffffff" fill-opacity="1"><g transform="translate(422.438675, 682.752058)"><g/></g></g><g fill="#ffffff" fill-opacity="1"><g transform="translate(431.438663, 682.752058)"><g><path d="M 12.453125 -24 C 14.492188 -24 16.128906 -23.59375 17.359375 -22.78125 C 18.585938 -21.96875 19.472656 -20.878906 20.015625 -19.515625 C 20.566406 -18.160156 20.84375 -16.65625 20.84375 -15 C 20.84375 -13.34375 20.582031 -11.828125 20.0625 -10.453125 C 19.550781 -9.085938 18.679688 -8 17.453125 -7.1875 C 16.234375 -6.375 14.566406 -5.96875 12.453125 -5.96875 L 6.59375 -5.96875 L 6.59375 0 L 2.09375 0 L 2.09375 -24 Z M 15.515625 -11.4375 C 16.066406 -12.113281 16.34375 -13.300781 16.34375 -15 C 16.34375 -16.625 16.054688 -17.804688 15.484375 -18.546875 C 15.421875 -18.617188 15.289062 -18.734375 15.09375 -18.890625 C 14.894531 -19.054688 14.585938 -19.203125 14.171875 -19.328125 C 13.765625 -19.460938 13.191406 -19.53125 12.453125 -19.53125 L 6.59375 -19.53125 L 6.59375 -10.46875 L 12.453125 -10.46875 C 13.992188 -10.46875 15.015625 -10.789062 15.515625 -11.4375 Z M 15.515625 -11.4375 "/></g></g></g><g fill="#ffffff" fill-opacity="1"><g transform="translate(454.088649, 682.752058)"><g><path d="M 20.84375 -15 C 20.84375 -13.5 20.640625 -12.109375 20.234375 -10.828125 C 19.828125 -9.546875 19.125 -8.5 18.125 -7.6875 L 20.84375 0 L 16.140625 0 L 13.984375 -6.0625 C 13.503906 -6 12.992188 -5.96875 12.453125 -5.96875 L 6.59375 -5.96875 L 6.59375 0 L 2.09375 0 L 2.09375 -24 L 12.453125 -24 C 14.492188 -24 16.128906 -23.59375 17.359375 -22.78125 C 18.585938 -21.96875 19.472656 -20.878906 20.015625 -19.515625 C 20.566406 -18.160156 20.84375 -16.65625 20.84375 -15 Z M 6.59375 -10.46875 L 12.453125 -10.46875 C 13.992188 -10.46875 15.015625 -10.789062 15.515625 -11.4375 C 16.066406 -12.113281 16.34375 -13.300781 16.34375 -15 C 16.34375 -16.625 16.054688 -17.804688 15.484375 -18.546875 C 15.421875 -18.617188 15.289062 -18.734375 15.09375 -18.890625 C 14.894531 -19.054688 14.585938 -19.203125 14.171875 -19.328125 C 13.765625 -19.460938 13.191406 -19.53125 12.453125 -19.53125 L 6.59375 -19.53125 Z M 6.59375 -10.46875 "/></g></g></g><g fill="#ffffff" fill-opacity="1"><g transform="translate(476.738634, 682.752058)"><g><path d="M 16.015625 -19.5625 L 6.59375 -19.5625 L 6.59375 -14.28125 L 12.203125 -14.28125 L 12.203125 -9.8125 L 6.59375 -9.8125 L 6.59375 -4.46875 L 16.015625 -4.46875 L 16.015625 0 L 2.09375 0 L 2.09375 -24.03125 L 16.015625 -24.03125 Z M 16.015625 -19.5625 "/></g></g></g><g fill="#ffffff" fill-opacity="1"><g transform="translate(494.858613, 682.752058)"><g><path d="M 17.015625 -19.5 L 6.59375 -19.5 L 6.59375 -12.984375 L 13.203125 -12.984375 L 13.203125 -8.484375 L 6.59375 -8.484375 L 6.59375 0 L 2.09375 0 L 2.09375 -24 L 17.015625 -24 Z M 17.015625 -19.5 "/></g></g></g><g fill="#ffffff" fill-opacity="1"><g transform="translate(513.038593, 682.752058)"><g><path d="M 16.015625 -19.5625 L 6.59375 -19.5625 L 6.59375 -14.28125 L 12.203125 -14.28125 L 12.203125 -9.8125 L 6.59375 -9.8125 L 6.59375 -4.46875 L 16.015625 -4.46875 L 16.015625 0 L 2.09375 0 L 2.09375 -24.03125 L 16.015625 -24.03125 Z M 16.015625 -19.5625 "/></g></g></g><g fill="#ffffff" fill-opacity="1"><g transform="translate(531.158583, 682.752058)"><g><path d="M 20.84375 -15 C 20.84375 -13.5 20.640625 -12.109375 20.234375 -10.828125 C 19.828125 -9.546875 19.125 -8.5 18.125 -7.6875 L 20.84375 0 L 16.140625 0 L 13.984375 -6.0625 C 13.503906 -6 12.992188 -5.96875 12.453125 -5.96875 L 6.59375 -5.96875 L 6.59375 0 L 2.09375 0 L 2.09375 -24 L 12.453125 -24 C 14.492188 -24 16.128906 -23.59375 17.359375 -22.78125 C 18.585938 -21.96875 19.472656 -20.878906 20.015625 -19.515625 C 20.566406 -18.160156 20.84375 -16.65625 20.84375 -15 Z M 6.59375 -10.46875 L 12.453125 -10.46875 C 13.992188 -10.46875 15.015625 -10.789062 15.515625 -11.4375 C 16.066406 -12.113281 16.34375 -13.300781 16.34375 -15 C 16.34375 -16.625 16.054688 -17.804688 15.484375 -18.546875 C 15.421875 -18.617188 15.289062 -18.734375 15.09375 -18.890625 C 14.894531 -19.054688 14.585938 -19.203125 14.171875 -19.328125 C 13.765625 -19.460938 13.191406 -19.53125 12.453125 -19.53125 L 6.59375 -19.53125 Z M 6.59375 -10.46875 "/></g></g></g><g fill="#ffffff" fill-opacity="1"><g transform="translate(554.108564, 682.752058)"><g/></g></g><g fill="#ffffff" fill-opacity="1"><g transform="translate(563.108541, 682.752058)"><g><path d="M 19.6875 -6.6875 L 23.0625 -3.328125 C 21.96875 -2.234375 20.671875 -1.359375 19.171875 -0.703125 C 17.671875 -0.0546875 16.070312 0.265625 14.375 0.265625 C 12.664062 0.265625 11.070312 -0.0507812 9.59375 -0.6875 C 8.113281 -1.332031 6.8125 -2.210938 5.6875 -3.328125 C 4.570312 -4.453125 3.691406 -5.753906 3.046875 -7.234375 C 2.410156 -8.710938 2.09375 -10.300781 2.09375 -12 C 2.09375 -13.695312 2.410156 -15.285156 3.046875 -16.765625 C 3.691406 -18.242188 4.570312 -19.539062 5.6875 -20.65625 C 6.8125 -21.78125 8.113281 -22.660156 9.59375 -23.296875 C 11.070312 -23.941406 12.664062 -24.265625 14.375 -24.265625 C 16.070312 -24.265625 17.671875 -23.941406 19.171875 -23.296875 C 20.671875 -22.660156 21.96875 -21.785156 23.0625 -20.671875 L 19.6875 -17.3125 C 19.0625 -18.050781 18.289062 -18.628906 17.375 -19.046875 C 16.46875 -19.472656 15.46875 -19.6875 14.375 -19.6875 C 12.96875 -19.6875 11.71875 -19.335938 10.625 -18.640625 C 9.539062 -17.953125 8.6875 -17.023438 8.0625 -15.859375 C 7.445312 -14.703125 7.140625 -13.414062 7.140625 -12 C 7.140625 -10.601562 7.445312 -9.316406 8.0625 -8.140625 C 8.6875 -6.972656 9.539062 -6.039062 10.625 -5.34375 C 11.71875 -4.65625 12.96875 -4.3125 14.375 -4.3125 C 15.46875 -4.3125 16.46875 -4.519531 17.375 -4.9375 C 18.289062 -5.363281 19.0625 -5.945312 19.6875 -6.6875 Z M 19.6875 -6.6875 "/></g></g></g><g fill="#ffffff" fill-opacity="1"><g transform="translate(585.878506, 682.752058)"><g><path d="M 16.265625 0 L 14.484375 -5.96875 L 8.578125 -5.96875 L 6.8125 0 L 2.09375 0 L 9.1875 -24 L 13.890625 -24 L 13.890625 -23.9375 L 20.9375 0 Z M 9.90625 -10.4375 L 13.171875 -10.4375 L 11.546875 -16.015625 Z M 9.90625 -10.4375 "/></g></g></g><g fill="#ffffff" fill-opacity="1"><g transform="translate(607.718501, 682.752058)"><g><path d="M 16.34375 -24 L 20.84375 -24 L 20.84375 0 L 15.234375 0 L 6.59375 -15.03125 L 6.59375 0 L 2.09375 0 L 2.09375 -24 L 7.015625 -24 L 16.34375 -7.796875 Z M 16.34375 -24 "/></g></g></g><g fill="#ffffff" fill-opacity="1"><g transform="translate(630.968454, 682.752058)"><g><path d="M 9.953125 -24 C 11.492188 -24 12.921875 -23.6875 14.234375 -23.0625 C 15.546875 -22.445312 16.691406 -21.585938 17.671875 -20.484375 C 18.648438 -19.390625 19.414062 -18.113281 19.96875 -16.65625 C 20.519531 -15.207031 20.796875 -13.65625 20.796875 -12 C 20.796875 -10.34375 20.53125 -8.785156 20 -7.328125 C 19.46875 -5.878906 18.71875 -4.601562 17.75 -3.5 C 16.78125 -2.40625 15.632812 -1.546875 14.3125 -0.921875 C 12.988281 -0.304688 11.535156 0 9.953125 0 L 2.09375 0 L 2.09375 -24 Z M 9.953125 -19.53125 L 6.5625 -19.53125 L 6.5625 -4.46875 L 9.953125 -4.46875 C 11.078125 -4.46875 12 -4.6875 12.71875 -5.125 C 13.4375 -5.570312 14 -6.023438 14.40625 -6.484375 C 15.039062 -7.179688 15.515625 -8.003906 15.828125 -8.953125 C 16.148438 -9.898438 16.3125 -10.914062 16.3125 -12 C 16.3125 -13.414062 16.03125 -14.6875 15.46875 -15.8125 C 14.914062 -16.945312 14.160156 -17.847656 13.203125 -18.515625 C 12.242188 -19.191406 11.160156 -19.53125 9.953125 -19.53125 Z M 9.953125 -19.53125 "/></g></g></g><g fill="#ffffff" fill-opacity="1"><g transform="translate(653.258431, 682.752058)"><g><path d="M 6.59375 -0.09375 L 6.59375 -24 L 2.09375 -24 L 2.09375 -0.09375 Z M 6.59375 -0.09375 "/></g></g></g><g fill="#ffffff" fill-opacity="1"><g transform="translate(662.258431, 682.752058)"><g><path d="M 9.953125 -24 C 11.492188 -24 12.921875 -23.6875 14.234375 -23.0625 C 15.546875 -22.445312 16.691406 -21.585938 17.671875 -20.484375 C 18.648438 -19.390625 19.414062 -18.113281 19.96875 -16.65625 C 20.519531 -15.207031 20.796875 -13.65625 20.796875 -12 C 20.796875 -10.34375 20.53125 -8.785156 20 -7.328125 C 19.46875 -5.878906 18.71875 -4.601562 17.75 -3.5 C 16.78125 -2.40625 15.632812 -1.546875 14.3125 -0.921875 C 12.988281 -0.304688 11.535156 0 9.953125 0 L 2.09375 0 L 2.09375 -24 Z M 9.953125 -19.53125 L 6.5625 -19.53125 L 6.5625 -4.46875 L 9.953125 -4.46875 C 11.078125 -4.46875 12 -4.6875 12.71875 -5.125 C 13.4375 -5.570312 14 -6.023438 14.40625 -6.484375 C 15.039062 -7.179688 15.515625 -8.003906 15.828125 -8.953125 C 16.148438 -9.898438 16.3125 -10.914062 16.3125 -12 C 16.3125 -13.414062 16.03125 -14.6875 15.46875 -15.8125 C 14.914062 -16.945312 14.160156 -17.847656 13.203125 -18.515625 C 12.242188 -19.191406 11.160156 -19.53125 9.953125 -19.53125 Z M 9.953125 -19.53125 "/></g></g></g><g fill="#ffffff" fill-opacity="1"><g transform="translate(682.448417, 682.752058)"><g><path d="M 16.265625 0 L 14.484375 -5.96875 L 8.578125 -5.96875 L 6.8125 0 L 2.09375 0 L 9.1875 -24 L 13.890625 -24 L 13.890625 -23.9375 L 20.9375 0 Z M 9.90625 -10.4375 L 13.171875 -10.4375 L 11.546875 -16.015625 Z M 9.90625 -10.4375 "/></g></g></g><g fill="#ffffff" fill-opacity="1"><g transform="translate(700.38838, 682.752058)"><g><path d="M 20.125 -24 L 20.125 -19.53125 L 13.34375 -19.53125 L 13.34375 0 L 8.875 0 L 8.875 -19.53125 L 2.09375 -19.53125 L 2.09375 -24 Z M 20.125 -24 "/></g></g></g><g fill="#ffffff" fill-opacity="1"><g transform="translate(722.318349, 682.752058)"><g><path d="M 16.015625 -19.5625 L 6.59375 -19.5625 L 6.59375 -14.28125 L 12.203125 -14.28125 L 12.203125 -9.8125 L 6.59375 -9.8125 L 6.59375 -4.46875 L 16.015625 -4.46875 L 16.015625 0 L 2.09375 0 L 2.09375 -24.03125 L 16.015625 -24.03125 Z M 16.015625 -19.5625 "/></g></g></g><path stroke-linecap="butt" transform="matrix(0.53033, -0.53033, 0.53033, 0.53033, -479.784882, 1125.367235)" fill="none" stroke-linejoin="miter" d="M -0.000213759 33.999749 L 1540.675048 33.999749 " stroke="#ff5757" stroke-width="68" stroke-opacity="1" stroke-miterlimit="4"/><path stroke-linecap="butt" transform="matrix(0.53033, -0.53033, 0.53033, 0.53033, -596.378748, 1119.50106)" fill="none" stroke-linejoin="miter" d="M 0.000849663 33.998904 L 1540.676112 33.998904 " stroke="#ff5757" stroke-width="68" stroke-opacity="1" stroke-miterlimit="4"/><path stroke-linecap="butt" transform="matrix(0.53033, -0.53033, 0.53033, 0.53033, -717.128742, 1115.72634)" fill="none" stroke-linejoin="miter" d="M -0.000365037 34.000107 L 1540.674897 34.000107 " stroke="#ff5757" stroke-width="68" stroke-opacity="1" stroke-miterlimit="4"/><path stroke-linecap="butt" transform="matrix(0.53033, -0.53033, 0.53033, 0.53033, 902.036385, 284.403346)" fill="none" stroke-linejoin="miter" d="M -0.000212933 33.997949 L 1540.675049 33.997949 " stroke="#ff5757" stroke-width="68" stroke-opacity="1" stroke-miterlimit="4"/><path stroke-linecap="butt" transform="matrix(0.53033, -0.53033, 0.53033, 0.53033, 1165.182476, 290.269575)" fill="none" stroke-linejoin="miter" d="M 0.00109544 34.001066 L 1540.676358 34.001066 " stroke="#ff5757" stroke-width="68" stroke-opacity="1" stroke-miterlimit="4"/><path stroke-linecap="butt" transform="matrix(0.53033, -0.53033, 0.53033, 0.53033, 1278.801278, 298.659819)" fill="none" stroke-linejoin="miter" d="M -0.000786598 33.999903 L 1540.674476 33.999903 " stroke="#ff5757" stroke-width="68" stroke-opacity="1" stroke-miterlimit="4"/></svg>